<?xml version="1.0" standalone="no"?>
<!DOCTYPE svg PUBLIC "-//W3C//DTD SVG 20010904//EN"
 "http://www.w3.org/TR/2001/REC-SVG-20010904/DTD/svg10.dtd">
<svg version="1.0" xmlns="http://www.w3.org/2000/svg"
 width="4096.000000pt" height="4096.000000pt" viewBox="0 0 4096.000000 4096.000000"
 preserveAspectRatio="xMidYMid meet">

<g transform="translate(0.000000,4096.000000) scale(0.100000,-0.100000)"
fill="#000000" stroke="none">
<path d="M27815 33973 c-189 -18 -393 -60 -531 -111 -118 -44 -407 -192 -493
-252 -224 -159 -336 -361 -347 -629 -2 -52 -5 -95 -6 -97 -2 -1 -104 -10 -228
-19 -577 -42 -1130 -120 -1830 -259 -688 -137 -1457 -346 -2012 -547 -60 -21
-157 -57 -216 -78 -60 -22 -214 -82 -343 -134 -987 -399 -1885 -898 -2874
-1597 -770 -545 -1219 -922 -1658 -1395 -276 -297 -460 -588 -519 -819 l-23
-88 -175 -87 c-164 -82 -252 -129 -445 -239 -236 -134 -650 -409 -831 -552
-38 -30 -103 -80 -144 -111 -168 -127 -551 -471 -755 -680 -441 -450 -758
-850 -1110 -1399 -216 -336 -481 -850 -623 -1210 -50 -127 -162 -440 -186
-520 -13 -41 -53 -174 -90 -295 -145 -474 -211 -778 -260 -1205 -97 -834 -104
-1196 -35 -1885 59 -593 111 -892 220 -1275 147 -511 299 -958 422 -1235 187
-425 400 -816 657 -1205 91 -138 239 -348 290 -410 20 -25 74 -94 120 -155
122 -161 428 -504 635 -710 192 -193 542 -507 690 -620 50 -38 126 -96 170
-131 190 -146 572 -401 812 -540 51 -30 94 -54 96 -54 2 0 44 -23 93 -51 163
-94 561 -287 744 -361 269 -109 505 -188 955 -322 475 -141 715 -189 1230
-246 786 -87 1191 -87 1970 0 591 66 859 126 1565 347 109 34 382 130 535 188
313 118 892 414 1225 625 235 149 566 377 630 435 14 12 75 60 135 105 171
130 487 411 695 620 175 175 442 469 564 621 98 123 249 319 276 360 14 20 61
88 105 151 44 62 104 151 134 198 30 47 75 117 100 155 25 39 61 99 81 135 20
36 68 119 105 185 145 256 340 659 420 870 74 195 140 381 170 475 275 887
317 1088 394 1865 64 649 59 1007 -25 1755 -19 173 -46 383 -60 465 -43 260
-131 600 -259 1006 -25 78 -45 147 -45 151 0 18 -170 476 -225 608 -68 161
-270 575 -350 715 -106 185 -138 240 -203 345 -74 120 -219 338 -321 484 -53
76 -76 119 -97 185 -81 259 -270 728 -484 1201 -104 229 -165 437 -309 1058
l-40 172 15 118 c73 572 284 1418 514 2062 208 584 421 1021 716 1473 57 86
106 157 109 157 3 0 24 -9 46 -20 142 -73 361 -139 544 -165 126 -18 403 -21
513 -5 523 74 914 332 1013 670 7 25 30 70 50 100 144 216 166 427 69 677 -37
96 -86 181 -215 370 -149 218 -267 328 -459 425 -255 129 -699 209 -1001 181z
m-7360 -6537 c467 -16 1060 -117 1573 -268 501 -147 950 -338 1427 -606 919
-517 1733 -1285 2321 -2192 259 -399 513 -913 680 -1375 64 -178 149 -456 184
-600 16 -66 40 -167 54 -225 31 -128 100 -545 120 -730 49 -430 47 -1042 -5
-1450 -69 -552 -180 -1034 -341 -1485 -105 -292 -258 -645 -279 -645 -6 0 -7
-4 -4 -10 6 -9 -64 -152 -78 -158 -4 -2 -5 -8 -1 -13 3 -5 1 -9 -4 -9 -5 0 -9
-6 -9 -13 0 -17 -33 -67 -45 -67 -5 0 -6 -4 -3 -10 3 -5 1 -10 -4 -10 -6 0
-10 -3 -9 -7 3 -10 -81 -163 -99 -181 -7 -8 -11 -18 -8 -23 4 -5 2 -9 -3 -9
-5 0 -22 -25 -37 -55 -16 -30 -32 -55 -37 -55 -4 0 -8 -7 -8 -15 0 -8 -4 -15
-9 -15 -5 0 -14 -12 -20 -27 -11 -29 -128 -212 -158 -248 -9 -11 -44 -58 -76
-105 -92 -130 -162 -224 -180 -239 -9 -7 -17 -19 -17 -26 0 -7 -10 -23 -22
-37 -13 -13 -41 -46 -63 -73 -139 -171 -688 -735 -715 -735 -5 0 -21 -16 -36
-35 -14 -19 -30 -32 -35 -30 -4 3 -19 -10 -32 -30 -13 -19 -26 -33 -28 -31 -3
3 -26 -14 -51 -38 -26 -24 -49 -41 -52 -39 -3 3 -11 -4 -18 -16 -7 -12 -18
-21 -25 -21 -7 0 -18 -9 -25 -20 -7 -11 -18 -20 -24 -20 -7 0 -15 -7 -18 -16
-3 -8 -10 -12 -16 -9 -5 3 -10 -1 -10 -9 0 -9 -8 -16 -19 -16 -11 0 -21 -9
-24 -21 -3 -12 -10 -18 -16 -15 -5 4 -15 -3 -21 -14 -6 -11 -14 -19 -18 -17
-4 1 -20 -10 -36 -26 -15 -15 -33 -24 -39 -21 -7 4 -9 3 -4 -1 9 -11 -43 -46
-56 -38 -6 3 -7 1 -4 -5 7 -11 -227 -171 -410 -280 -470 -281 -1032 -529
-1513 -667 -69 -20 -143 -42 -165 -50 -99 -33 -562 -128 -775 -159 -425 -63
-533 -70 -975 -71 -408 0 -516 6 -825 46 -260 34 -450 67 -662 115 -803 183
-1543 499 -2233 954 -560 368 -1094 857 -1526 1395 -303 378 -539 744 -757
1178 -344 682 -562 1382 -662 2119 -89 660 -87 1201 6 1863 142 1018 553 2053
1147 2894 180 253 150 214 336 441 140 171 245 285 446 485 697 696 1538 1225
2486 1566 315 113 748 228 1045 278 551 93 922 116 1519 97z"/>
<path d="M20882 26265 c-65 -33 -102 -90 -102 -156 0 -76 40 -91 106 -38 57
46 75 50 139 34 95 -25 145 -69 190 -167 26 -58 55 -186 55 -243 0 -53 24
-103 53 -110 47 -12 79 -1 111 38 27 34 31 47 34 115 5 94 -15 175 -68 289
-49 106 -114 171 -215 220 -64 30 -89 36 -163 40 -79 4 -92 2 -140 -22z"/>
<path d="M17404 25622 c-39 -31 -45 -57 -38 -146 16 -198 -60 -371 -172 -392
-74 -14 -172 40 -219 120 -15 25 -35 85 -45 134 -10 49 -23 99 -29 111 -13 24
-50 36 -86 27 -50 -13 -82 -126 -65 -235 30 -187 174 -339 355 -372 160 -29
324 55 408 209 42 78 78 230 79 337 1 161 -33 225 -121 225 -28 0 -54 -7 -67
-18z"/>
<path d="M25065 23588 c-120 -104 -156 -419 -69 -591 47 -93 139 -170 221
-185 103 -18 206 38 220 121 7 47 -6 59 -99 87 -49 15 -74 30 -97 55 -77 88
-82 295 -11 404 36 53 34 83 -6 119 -40 35 -113 31 -159 -10z"/>
<path d="M17250 22814 c-181 -22 -417 -113 -564 -218 -212 -152 -454 -521
-527 -806 -16 -62 -23 -121 -25 -220 -1 -74 -6 -169 -10 -211 -13 -147 37
-351 136 -555 139 -286 370 -528 625 -654 374 -185 785 -149 1111 99 250 189
404 452 497 846 49 206 58 356 32 546 -72 541 -343 915 -792 1093 -151 60
-361 95 -483 80z m250 -555 c90 -14 141 -39 206 -101 156 -147 249 -355 273
-611 23 -242 -26 -456 -147 -634 -63 -93 -199 -216 -289 -260 -75 -37 -80 -38
-183 -38 -95 1 -111 3 -165 29 -150 73 -366 369 -451 620 -52 152 -10 406 105
634 107 212 240 319 446 357 89 17 124 17 205 4z"/>
<path d="M23225 22750 c-330 -47 -625 -217 -815 -471 -204 -273 -313 -697
-270 -1049 35 -280 157 -616 292 -797 328 -445 870 -582 1353 -343 255 126
486 368 625 654 99 204 149 408 136 555 -4 42 -9 137 -10 211 -2 99 -9 158
-25 220 -73 285 -315 654 -527 806 -114 81 -303 164 -449 197 -89 20 -233 28
-310 17z m200 -566 c176 -45 299 -153 396 -346 115 -228 157 -482 105 -634
-85 -251 -301 -547 -451 -620 -54 -26 -70 -28 -165 -29 -103 0 -108 1 -183 38
-90 44 -226 167 -289 260 -121 178 -170 392 -147 634 24 256 117 464 273 611
62 59 117 87 197 101 68 12 187 6 264 -15z"/>
<path d="M14581 22509 c-54 -22 -55 -30 -3 -60 66 -37 99 -79 108 -134 17
-114 -53 -227 -196 -317 -53 -34 -98 -75 -89 -81 31 -24 85 -48 121 -53 84
-12 184 56 261 178 54 85 72 143 72 233 0 159 -72 246 -203 244 -26 0 -58 -5
-71 -10z"/>
<path d="M15425 19973 c-222 -7 -501 -44 -679 -89 -254 -64 -400 -203 -441
-420 -19 -95 -19 -157 -1 -220 8 -27 17 -84 20 -126 31 -373 366 -668 923
-813 169 -44 301 -59 503 -58 220 0 359 22 542 83 549 183 850 548 774 934
-70 354 -418 586 -1021 680 -102 16 -414 37 -495 34 -25 -1 -81 -3 -125 -5z
m415 -408 c266 -36 491 -102 631 -185 244 -145 217 -346 -71 -516 -332 -196
-800 -220 -1219 -63 -266 100 -417 234 -527 469 -24 52 -49 103 -55 114 -21
36 59 97 170 130 69 20 319 55 475 66 154 11 460 3 596 -15z"/>
<path d="M24250 19499 c-232 -20 -476 -65 -645 -120 -49 -17 -168 -69 -264
-117 -215 -108 -266 -151 -332 -278 -71 -137 -83 -182 -84 -309 0 -208 71
-353 214 -432 36 -21 91 -56 121 -79 160 -121 391 -194 711 -224 190 -18 656
-8 825 18 349 55 568 148 739 316 151 148 235 347 235 560 0 342 -204 543
-641 630 -68 14 -173 30 -233 35 -124 12 -504 12 -646 0z m455 -369 c325 -28
567 -95 637 -178 78 -93 26 -309 -101 -423 -173 -154 -560 -234 -1050 -215
-409 16 -648 80 -785 212 -71 67 -77 90 -72 251 5 135 5 137 33 160 51 43 168
93 289 123 117 29 376 66 504 73 155 8 434 6 545 -3z"/>
<path d="M20258 18630 c-175 -32 -375 -144 -519 -292 -188 -192 -244 -380
-189 -631 51 -229 64 -264 140 -378 55 -80 186 -199 266 -241 280 -146 613
-102 845 110 109 100 180 221 220 377 27 105 32 307 10 410 -65 312 -247 539
-500 627 -64 21 -204 31 -273 18z m162 -484 c47 -31 96 -104 117 -176 20 -66
23 -217 5 -277 -31 -103 -121 -172 -226 -173 -129 0 -198 71 -328 334 l-43 88
72 67 c70 66 176 131 258 157 52 17 99 11 145 -20z"/>
<path d="M23403 16750 c-221 -46 -395 -297 -381 -550 6 -106 38 -175 100 -220
55 -40 77 -45 137 -29 47 12 49 14 53 51 2 21 -2 64 -9 96 -60 285 91 495 304
423 75 -25 89 -26 97 -5 9 23 7 69 -3 97 -14 37 -70 96 -110 117 -44 22 -132
32 -188 20z"/>
<path d="M16842 16287 c-86 -33 -128 -123 -83 -178 19 -24 20 -24 49 -6 99 58
221 -43 278 -229 31 -102 62 -144 109 -144 66 0 107 77 94 178 -29 221 -287
440 -447 379z"/>
</g>
</svg>
